<?xml version="1.0" encoding="UTF-8" ?>
<svg version="1.1" width="960" height="960" xmlns="http://www.w3.org/2000/svg" shape-rendering="crispEdges">
<rect x="210" y="45" width="30" height="15" fill="#4F4F4F" />
<rect x="240" y="45" width="510" height="30" fill="#3E3E3E" />
<rect x="210" y="60" width="30" height="30" fill="#3E3E3E" />
<rect x="150" y="75" width="30" height="30" fill="#4F4F4F" />
<rect x="180" y="75" width="30" height="30" fill="#3E3E3E" />
<rect x="240" y="75" width="510" height="15" fill="#4F4F4F" />
<rect x="750" y="75" width="30" height="30" fill="#3E3E3E" />
<rect x="780" y="75" width="30" height="30" fill="#4F4F4F" />
<rect x="210" y="90" width="120" height="45" fill="#4F4F4F" />
<rect x="330" y="90" width="60" height="15" fill="#808080" />
<rect x="390" y="90" width="90" height="15" fill="#919191" />
<rect x="480" y="90" width="60" height="15" fill="#ABABAB" />
<rect x="540" y="90" width="150" height="15" fill="#919191" />
<rect x="690" y="90" width="60" height="45" fill="#4F4F4F" />
<rect x="120" y="105" width="30" height="30" fill="#3E3E3E" />
<rect x="150" y="105" width="15" height="15" fill="#919191" />
<rect x="165" y="105" width="15" height="30" fill="#ABABAB" />
<rect x="180" y="105" width="30" height="30" fill="#4F4F4F" />
<rect x="330" y="105" width="60" height="30" fill="#4F4F4F" />
<rect x="390" y="105" width="240" height="15" fill="#808080" />
<rect x="630" y="105" width="60" height="30" fill="#4F4F4F" />
<rect x="750" y="105" width="30" height="30" fill="#4F4F4F" />
<rect x="780" y="105" width="15" height="15" fill="#919191" />
<rect x="795" y="105" width="15" height="30" fill="#ABABAB" />
<rect x="810" y="105" width="30" height="30" fill="#3E3E3E" />
<rect x="150" y="120" width="15" height="15" fill="#ABABAB" />
<rect x="390" y="120" width="240" height="15" fill="#4F4F4F" />
<rect x="780" y="120" width="15" height="15" fill="#ABABAB" />
<rect x="90" y="135" width="45" height="15" fill="#919191" />
<rect x="135" y="135" width="15" height="30" fill="#ABABAB" />
<rect x="150" y="135" width="30" height="30" fill="#616161" />
<rect x="180" y="135" width="630" height="30" fill="#3E3E3E" />
<rect x="810" y="135" width="15" height="30" fill="#ABABAB" />
<rect x="825" y="135" width="45" height="15" fill="#919191" />
<rect x="90" y="150" width="30" height="15" fill="#919191" />
<rect x="120" y="150" width="15" height="15" fill="#ABABAB" />
<rect x="825" y="150" width="15" height="15" fill="#ABABAB" />
<rect x="840" y="150" width="30" height="15" fill="#919191" />
<rect x="90" y="165" width="60" height="30" fill="#4F4F4F" />
<rect x="150" y="165" width="30" height="60" fill="#3E3E3E" />
<rect x="180" y="165" width="600" height="15" fill="#616161" />
<rect x="780" y="165" width="30" height="60" fill="#3E3E3E" />
<rect x="810" y="165" width="60" height="30" fill="#4F4F4F" />
<rect x="180" y="180" width="105" height="15" fill="#616161" />
<rect x="300" y="180" width="105" height="15" fill="#616161" />
<rect x="420" y="180" width="105" height="15" fill="#616161" />
<rect x="540" y="180" width="105" height="15" fill="#616161" />
<rect x="660" y="180" width="120" height="15" fill="#616161" />
<rect x="120" y="195" width="30" height="585" fill="#3E3E3E" />
<rect x="180" y="195" width="600" height="30" fill="#3E3E3E" />
<rect x="810" y="195" width="30" height="585" fill="#3E3E3E" />
<rect x="150" y="225" width="15" height="555" fill="#919191" />
<rect x="165" y="225" width="630" height="15" fill="#4F4F4F" />
<rect x="795" y="225" width="15" height="330" fill="#919191" />
<rect x="165" y="240" width="120" height="15" fill="#4F4F4F" />
<rect x="300" y="240" width="105" height="15" fill="#4F4F4F" />
<rect x="420" y="240" width="105" height="15" fill="#4F4F4F" />
<rect x="540" y="240" width="105" height="15" fill="#4F4F4F" />
<rect x="660" y="240" width="135" height="15" fill="#4F4F4F" />
<rect x="165" y="255" width="105" height="15" fill="#4F4F4F" />
<rect x="315" y="255" width="75" height="15" fill="#4F4F4F" />
<rect x="435" y="255" width="75" height="15" fill="#4F4F4F" />
<rect x="555" y="255" width="75" height="15" fill="#4F4F4F" />
<rect x="675" y="255" width="120" height="15" fill="#4F4F4F" />
<rect x="165" y="270" width="90" height="30" fill="#4F4F4F" />
<rect x="330" y="270" width="45" height="30" fill="#4F4F4F" />
<rect x="450" y="270" width="45" height="30" fill="#4F4F4F" />
<rect x="570" y="270" width="45" height="30" fill="#4F4F4F" />
<rect x="690" y="270" width="105" height="30" fill="#4F4F4F" />
<rect x="255" y="285" width="15" height="45" fill="#4F4F4F" />
<rect x="315" y="285" width="15" height="45" fill="#4F4F4F" />
<rect x="375" y="285" width="15" height="45" fill="#4F4F4F" />
<rect x="435" y="285" width="15" height="45" fill="#4F4F4F" />
<rect x="495" y="285" width="15" height="45" fill="#4F4F4F" />
<rect x="555" y="285" width="15" height="45" fill="#4F4F4F" />
<rect x="615" y="285" width="15" height="45" fill="#4F4F4F" />
<rect x="675" y="285" width="15" height="45" fill="#4F4F4F" />
<rect x="165" y="300" width="60" height="15" fill="#4F4F4F" />
<rect x="240" y="300" width="15" height="15" fill="#4F4F4F" />
<rect x="270" y="300" width="15" height="75" fill="#4F4F4F" />
<rect x="300" y="300" width="15" height="75" fill="#4F4F4F" />
<rect x="330" y="300" width="15" height="15" fill="#4F4F4F" />
<rect x="360" y="300" width="15" height="15" fill="#4F4F4F" />
<rect x="390" y="300" width="15" height="75" fill="#4F4F4F" />
<rect x="420" y="300" width="15" height="75" fill="#4F4F4F" />
<rect x="450" y="300" width="15" height="15" fill="#4F4F4F" />
<rect x="480" y="300" width="15" height="15" fill="#4F4F4F" />
<rect x="510" y="300" width="15" height="75" fill="#4F4F4F" />
<rect x="540" y="300" width="15" height="75" fill="#4F4F4F" />
<rect x="570" y="300" width="15" height="15" fill="#4F4F4F" />
<rect x="600" y="300" width="15" height="15" fill="#4F4F4F" />
<rect x="630" y="300" width="15" height="75" fill="#4F4F4F" />
<rect x="660" y="300" width="15" height="75" fill="#4F4F4F" />
<rect x="690" y="300" width="15" height="15" fill="#4F4F4F" />
<rect x="720" y="300" width="75" height="15" fill="#4F4F4F" />
<rect x="165" y="315" width="45" height="15" fill="#4F4F4F" />
<rect x="285" y="315" width="15" height="45" fill="#4F4F4F" />
<rect x="405" y="315" width="15" height="45" fill="#4F4F4F" />
<rect x="525" y="315" width="15" height="45" fill="#4F4F4F" />
<rect x="645" y="315" width="15" height="45" fill="#4F4F4F" />
<rect x="735" y="315" width="60" height="15" fill="#4F4F4F" />
<rect x="165" y="330" width="30" height="390" fill="#4F4F4F" />
<rect x="750" y="330" width="45" height="225" fill="#4F4F4F" />
<rect x="195" y="345" width="15" height="105" fill="#4F4F4F" />
<rect x="255" y="345" width="15" height="45" fill="#4F4F4F" />
<rect x="315" y="345" width="15" height="45" fill="#4F4F4F" />
<rect x="375" y="345" width="15" height="45" fill="#4F4F4F" />
<rect x="435" y="345" width="15" height="45" fill="#4F4F4F" />
<rect x="495" y="345" width="15" height="45" fill="#4F4F4F" />
<rect x="555" y="345" width="15" height="45" fill="#4F4F4F" />
<rect x="615" y="345" width="15" height="45" fill="#4F4F4F" />
<rect x="675" y="345" width="15" height="45" fill="#4F4F4F" />
<rect x="735" y="345" width="15" height="105" fill="#4F4F4F" />
<rect x="210" y="360" width="15" height="75" fill="#4F4F4F" />
<rect x="240" y="360" width="15" height="75" fill="#4F4F4F" />
<rect x="330" y="360" width="15" height="75" fill="#4F4F4F" />
<rect x="360" y="360" width="15" height="75" fill="#4F4F4F" />
<rect x="450" y="360" width="15" height="75" fill="#4F4F4F" />
<rect x="480" y="360" width="15" height="75" fill="#4F4F4F" />
<rect x="570" y="360" width="15" height="75" fill="#4F4F4F" />
<rect x="600" y="360" width="15" height="75" fill="#4F4F4F" />
<rect x="690" y="360" width="15" height="75" fill="#4F4F4F" />
<rect x="720" y="360" width="15" height="75" fill="#4F4F4F" />
<rect x="225" y="375" width="15" height="45" fill="#4F4F4F" />
<rect x="345" y="375" width="15" height="45" fill="#4F4F4F" />
<rect x="465" y="375" width="15" height="45" fill="#4F4F4F" />
<rect x="585" y="375" width="15" height="45" fill="#4F4F4F" />
<rect x="705" y="375" width="15" height="45" fill="#4F4F4F" />
<rect x="255" y="405" width="15" height="45" fill="#4F4F4F" />
<rect x="315" y="405" width="15" height="45" fill="#4F4F4F" />
<rect x="375" y="405" width="15" height="45" fill="#4F4F4F" />
<rect x="435" y="405" width="15" height="45" fill="#4F4F4F" />
<rect x="495" y="405" width="15" height="45" fill="#4F4F4F" />
<rect x="555" y="405" width="15" height="45" fill="#4F4F4F" />
<rect x="615" y="405" width="15" height="45" fill="#4F4F4F" />
<rect x="675" y="405" width="15" height="45" fill="#4F4F4F" />
<rect x="270" y="420" width="15" height="75" fill="#4F4F4F" />
<rect x="300" y="420" width="15" height="75" fill="#4F4F4F" />
<rect x="390" y="420" width="15" height="75" fill="#4F4F4F" />
<rect x="420" y="420" width="15" height="75" fill="#4F4F4F" />
<rect x="510" y="420" width="15" height="75" fill="#4F4F4F" />
<rect x="540" y="420" width="15" height="75" fill="#4F4F4F" />
<rect x="630" y="420" width="15" height="75" fill="#4F4F4F" />
<rect x="660" y="420" width="15" height="75" fill="#4F4F4F" />
<rect x="285" y="435" width="15" height="45" fill="#4F4F4F" />
<rect x="405" y="435" width="15" height="45" fill="#4F4F4F" />
<rect x="525" y="435" width="15" height="45" fill="#4F4F4F" />
<rect x="645" y="435" width="15" height="45" fill="#4F4F4F" />
<rect x="195" y="465" width="15" height="105" fill="#4F4F4F" />
<rect x="255" y="465" width="15" height="45" fill="#4F4F4F" />
<rect x="315" y="465" width="15" height="45" fill="#4F4F4F" />
<rect x="375" y="465" width="15" height="45" fill="#4F4F4F" />
<rect x="435" y="465" width="15" height="45" fill="#4F4F4F" />
<rect x="495" y="465" width="15" height="45" fill="#4F4F4F" />
<rect x="555" y="465" width="15" height="45" fill="#4F4F4F" />
<rect x="615" y="465" width="15" height="45" fill="#4F4F4F" />
<rect x="675" y="465" width="15" height="45" fill="#4F4F4F" />
<rect x="735" y="465" width="15" height="105" fill="#4F4F4F" />
<rect x="210" y="480" width="15" height="75" fill="#4F4F4F" />
<rect x="240" y="480" width="15" height="75" fill="#4F4F4F" />
<rect x="330" y="480" width="15" height="75" fill="#4F4F4F" />
<rect x="360" y="480" width="15" height="75" fill="#4F4F4F" />
<rect x="450" y="480" width="15" height="75" fill="#4F4F4F" />
<rect x="480" y="480" width="15" height="75" fill="#4F4F4F" />
<rect x="570" y="480" width="15" height="75" fill="#4F4F4F" />
<rect x="600" y="480" width="15" height="75" fill="#4F4F4F" />
<rect x="690" y="480" width="15" height="75" fill="#4F4F4F" />
<rect x="720" y="480" width="15" height="75" fill="#4F4F4F" />
<rect x="225" y="495" width="15" height="45" fill="#4F4F4F" />
<rect x="345" y="495" width="15" height="45" fill="#4F4F4F" />
<rect x="465" y="495" width="15" height="45" fill="#4F4F4F" />
<rect x="585" y="495" width="15" height="45" fill="#4F4F4F" />
<rect x="705" y="495" width="15" height="45" fill="#4F4F4F" />
<rect x="255" y="525" width="15" height="45" fill="#4F4F4F" />
<rect x="315" y="525" width="15" height="45" fill="#4F4F4F" />
<rect x="375" y="525" width="15" height="45" fill="#4F4F4F" />
<rect x="435" y="525" width="15" height="45" fill="#4F4F4F" />
<rect x="495" y="525" width="15" height="45" fill="#4F4F4F" />
<rect x="555" y="525" width="15" height="45" fill="#4F4F4F" />
<rect x="615" y="525" width="15" height="45" fill="#4F4F4F" />
<rect x="675" y="525" width="15" height="45" fill="#4F4F4F" />
<rect x="270" y="540" width="15" height="75" fill="#4F4F4F" />
<rect x="300" y="540" width="15" height="75" fill="#4F4F4F" />
<rect x="390" y="540" width="15" height="75" fill="#4F4F4F" />
<rect x="420" y="540" width="15" height="75" fill="#4F4F4F" />
<rect x="510" y="540" width="15" height="75" fill="#4F4F4F" />
<rect x="540" y="540" width="15" height="75" fill="#4F4F4F" />
<rect x="630" y="540" width="15" height="75" fill="#4F4F4F" />
<rect x="660" y="540" width="15" height="75" fill="#4F4F4F" />
<rect x="285" y="555" width="15" height="45" fill="#4F4F4F" />
<rect x="405" y="555" width="15" height="45" fill="#4F4F4F" />
<rect x="525" y="555" width="15" height="45" fill="#4F4F4F" />
<rect x="645" y="555" width="15" height="45" fill="#4F4F4F" />
<rect x="750" y="555" width="30" height="225" fill="#4F4F4F" />
<rect x="780" y="555" width="15" height="225" fill="#919191" />
<rect x="795" y="555" width="15" height="120" fill="#808080" />
<rect x="195" y="585" width="15" height="105" fill="#4F4F4F" />
<rect x="255" y="585" width="15" height="45" fill="#4F4F4F" />
<rect x="315" y="585" width="15" height="45" fill="#4F4F4F" />
<rect x="375" y="585" width="15" height="45" fill="#4F4F4F" />
<rect x="435" y="585" width="15" height="45" fill="#4F4F4F" />
<rect x="495" y="585" width="15" height="45" fill="#4F4F4F" />
<rect x="555" y="585" width="15" height="45" fill="#4F4F4F" />
<rect x="615" y="585" width="15" height="45" fill="#4F4F4F" />
<rect x="675" y="585" width="15" height="45" fill="#4F4F4F" />
<rect x="735" y="585" width="15" height="105" fill="#4F4F4F" />
<rect x="210" y="600" width="15" height="75" fill="#4F4F4F" />
<rect x="240" y="600" width="15" height="75" fill="#4F4F4F" />
<rect x="330" y="600" width="15" height="75" fill="#4F4F4F" />
<rect x="360" y="600" width="15" height="75" fill="#4F4F4F" />
<rect x="450" y="600" width="15" height="75" fill="#4F4F4F" />
<rect x="480" y="600" width="15" height="75" fill="#4F4F4F" />
<rect x="570" y="600" width="15" height="75" fill="#4F4F4F" />
<rect x="600" y="600" width="15" height="75" fill="#4F4F4F" />
<rect x="690" y="600" width="15" height="75" fill="#4F4F4F" />
<rect x="720" y="600" width="15" height="75" fill="#4F4F4F" />
<rect x="225" y="615" width="15" height="45" fill="#4F4F4F" />
<rect x="345" y="615" width="15" height="45" fill="#4F4F4F" />
<rect x="465" y="615" width="15" height="45" fill="#4F4F4F" />
<rect x="585" y="615" width="15" height="45" fill="#4F4F4F" />
<rect x="705" y="615" width="15" height="45" fill="#4F4F4F" />
<rect x="255" y="645" width="15" height="45" fill="#4F4F4F" />
<rect x="315" y="645" width="15" height="45" fill="#4F4F4F" />
<rect x="375" y="645" width="15" height="45" fill="#4F4F4F" />
<rect x="435" y="645" width="15" height="45" fill="#4F4F4F" />
<rect x="495" y="645" width="15" height="45" fill="#4F4F4F" />
<rect x="555" y="645" width="15" height="45" fill="#4F4F4F" />
<rect x="615" y="645" width="15" height="45" fill="#4F4F4F" />
<rect x="675" y="645" width="15" height="45" fill="#4F4F4F" />
<rect x="270" y="660" width="15" height="75" fill="#4F4F4F" />
<rect x="300" y="660" width="15" height="75" fill="#4F4F4F" />
<rect x="390" y="660" width="15" height="75" fill="#4F4F4F" />
<rect x="420" y="660" width="15" height="75" fill="#4F4F4F" />
<rect x="510" y="660" width="15" height="75" fill="#4F4F4F" />
<rect x="540" y="660" width="15" height="75" fill="#4F4F4F" />
<rect x="630" y="660" width="15" height="75" fill="#4F4F4F" />
<rect x="660" y="660" width="15" height="75" fill="#4F4F4F" />
<rect x="285" y="675" width="15" height="45" fill="#4F4F4F" />
<rect x="405" y="675" width="15" height="45" fill="#4F4F4F" />
<rect x="525" y="675" width="15" height="45" fill="#4F4F4F" />
<rect x="645" y="675" width="15" height="45" fill="#4F4F4F" />
<rect x="795" y="675" width="15" height="30" fill="#919191" />
<rect x="195" y="705" width="15" height="75" fill="#4F4F4F" />
<rect x="255" y="705" width="15" height="45" fill="#4F4F4F" />
<rect x="315" y="705" width="15" height="45" fill="#4F4F4F" />
<rect x="375" y="705" width="15" height="45" fill="#4F4F4F" />
<rect x="435" y="705" width="15" height="45" fill="#4F4F4F" />
<rect x="495" y="705" width="15" height="45" fill="#4F4F4F" />
<rect x="555" y="705" width="15" height="45" fill="#4F4F4F" />
<rect x="615" y="705" width="15" height="45" fill="#4F4F4F" />
<rect x="675" y="705" width="15" height="45" fill="#4F4F4F" />
<rect x="735" y="705" width="15" height="105" fill="#4F4F4F" />
<rect x="795" y="705" width="15" height="45" fill="#808080" />
<rect x="165" y="720" width="15" height="60" fill="#919191" />
<rect x="180" y="720" width="15" height="30" fill="#4F4F4F" />
<rect x="210" y="720" width="15" height="90" fill="#4F4F4F" />
<rect x="240" y="720" width="15" height="90" fill="#4F4F4F" />
<rect x="330" y="720" width="15" height="120" fill="#4F4F4F" />
<rect x="360" y="720" width="15" height="135" fill="#4F4F4F" />
<rect x="450" y="720" width="15" height="135" fill="#4F4F4F" />
<rect x="480" y="720" width="15" height="135" fill="#4F4F4F" />
<rect x="570" y="720" width="15" height="135" fill="#4F4F4F" />
<rect x="600" y="720" width="15" height="120" fill="#4F4F4F" />
<rect x="690" y="720" width="15" height="90" fill="#4F4F4F" />
<rect x="720" y="720" width="15" height="90" fill="#4F4F4F" />
<rect x="225" y="735" width="15" height="75" fill="#4F4F4F" />
<rect x="345" y="735" width="15" height="105" fill="#4F4F4F" />
<rect x="465" y="735" width="15" height="120" fill="#4F4F4F" />
<rect x="585" y="735" width="15" height="120" fill="#4F4F4F" />
<rect x="705" y="735" width="15" height="75" fill="#4F4F4F" />
<rect x="180" y="750" width="15" height="30" fill="#919191" />
<rect x="795" y="750" width="15" height="30" fill="#919191" />
<rect x="255" y="765" width="15" height="45" fill="#4F4F4F" />
<rect x="315" y="765" width="15" height="60" fill="#4F4F4F" />
<rect x="375" y="765" width="15" height="90" fill="#4F4F4F" />
<rect x="435" y="765" width="15" height="90" fill="#4F4F4F" />
<rect x="495" y="765" width="15" height="90" fill="#4F4F4F" />
<rect x="555" y="765" width="15" height="60" fill="#4F4F4F" />
<rect x="615" y="765" width="15" height="75" fill="#4F4F4F" />
<rect x="675" y="765" width="15" height="45" fill="#4F4F4F" />
<rect x="150" y="780" width="60" height="30" fill="#3E3E3E" />
<rect x="270" y="780" width="15" height="30" fill="#4F4F4F" />
<rect x="300" y="780" width="15" height="45" fill="#4F4F4F" />
<rect x="390" y="780" width="15" height="75" fill="#4F4F4F" />
<rect x="420" y="780" width="15" height="75" fill="#4F4F4F" />
<rect x="510" y="780" width="15" height="45" fill="#4F4F4F" />
<rect x="540" y="780" width="15" height="45" fill="#4F4F4F" />
<rect x="630" y="780" width="15" height="45" fill="#4F4F4F" />
<rect x="660" y="780" width="15" height="30" fill="#4F4F4F" />
<rect x="750" y="780" width="60" height="30" fill="#3E3E3E" />
<rect x="285" y="795" width="15" height="15" fill="#4F4F4F" />
<rect x="405" y="795" width="15" height="60" fill="#4F4F4F" />
<rect x="525" y="795" width="15" height="30" fill="#4F4F4F" />
<rect x="645" y="795" width="15" height="30" fill="#4F4F4F" />
<rect x="180" y="810" width="30" height="30" fill="#3E3E3E" />
<rect x="210" y="810" width="90" height="30" fill="#353535" />
<rect x="660" y="810" width="60" height="30" fill="#353535" />
<rect x="720" y="810" width="15" height="15" fill="#919191" />
<rect x="735" y="810" width="15" height="30" fill="#ABABAB" />
<rect x="750" y="810" width="30" height="30" fill="#3E3E3E" />
<rect x="300" y="825" width="30" height="75" fill="#353535" />
<rect x="510" y="825" width="60" height="15" fill="#919191" />
<rect x="630" y="825" width="30" height="75" fill="#353535" />
<rect x="720" y="825" width="15" height="15" fill="#ABABAB" />
<rect x="210" y="840" width="60" height="30" fill="#3E3E3E" />
<rect x="270" y="840" width="30" height="30" fill="#353535" />
<rect x="330" y="840" width="30" height="60" fill="#353535" />
<rect x="510" y="840" width="60" height="15" fill="#4F4F4F" />
<rect x="600" y="840" width="30" height="60" fill="#353535" />
<rect x="660" y="840" width="30" height="45" fill="#353535" />
<rect x="690" y="840" width="60" height="30" fill="#3E3E3E" />
<rect x="360" y="855" width="240" height="45" fill="#353535" />
<rect x="240" y="870" width="30" height="30" fill="#3E3E3E" />
<rect x="270" y="870" width="15" height="15" fill="#808080" />
<rect x="285" y="870" width="15" height="15" fill="#353535" />
<rect x="690" y="870" width="30" height="30" fill="#3E3E3E" />
<rect x="270" y="885" width="15" height="15" fill="#ABABAB" />
<rect x="285" y="885" width="15" height="15" fill="#919191" />
<rect x="660" y="885" width="30" height="15" fill="#ABABAB" />
<rect x="270" y="900" width="420" height="30" fill="#3E3E3E" />
</svg>